<?xml version="1.0" encoding="utf-8"?>
<!-- Generator: Adobe Illustrator 19.1.0, SVG Export Plug-In . SVG Version: 6.00 Build 0)  -->
<svg version="1.1" id="Layer_1" xmlns="http://www.w3.org/2000/svg" xmlns:xlink="http://www.w3.org/1999/xlink" x="0px" y="0px"
	 viewBox="0 0 1000 1000" style="enable-background:new 0 0 1000 1000;" xml:space="preserve">
<style type="text/css">
	.st0{fill:url(#SVGID_1_);}
	.st1{fill:#231F20;}
</style>
<g>
	<g>
		
			<linearGradient id="SVGID_1_" gradientUnits="userSpaceOnUse" x1="31.1908" y1="303.5043" x2="963.4102" y2="303.5043" gradientTransform="matrix(-0.9981 -6.140112e-002 -6.140112e-002 0.9981 1017.4708 31.2049)">
			<stop  offset="0" style="stop-color:#3300FF"/>
			<stop  offset="0.25" style="stop-color:#00D23E"/>
			<stop  offset="0.75" style="stop-color:#ECF000"/>
			<stop  offset="1" style="stop-color:#FF0056"/>
		</linearGradient>
		<path class="st0" d="M657.1,94.7C868.5,217.1,946.6,533.5,952,585.1c0.5,4.6-3,8.4-7.5,8.8c-128.1,13.4-310.4,7.4-423.9-15.3
			C399,554.3,325.7,492.8,296.7,393.1l0.2-0.4c0-0.2,0.2-0.8,0.1-0.9l0.4,0.2l-0.2,0.4c-15.7-59.1-8.5-122.7,24.6-175.9
			c26.5-42.7,67.2-75,114.7-91.2c59.4-20.2,122.8-14.5,177.2,15.7c51.2,28.4,88.2,75,104.4,131.3c15.7,54.7,6.6,112.5-25.6,160.4
			c-20.8,30.9-50.4,55.2-84.8,69.4c-31.7,13.1-65.1,17.4-97.4,13.5c-24.1-3-47.6-10.6-69.5-22.7c-44.8-24.9-77.3-65.7-91.3-115
			c-7.9-27.7-6.7-72.9,3.1-99.9c21-57.4,69.4-97.2,129.2-106.8c28.4-4.6,57.8-1.4,84.6,9.3c48.5,19.3,83.8,58.5,97.8,107.4
			c11.7,40.9,4,84.3-21.8,119.4c-14.8,20.1-35.2,35.8-58.5,45c-22.1,8.8-45.3,11.7-67.9,8.9c-17.2-2.1-34-7.6-49.6-16.2
			c-31.9-17.7-55.1-46.8-65.1-81.9l0,0c-10.2-35.8-2.3-73.8,22.6-103.4c9-10.7,20.1-19.5,32.5-25.8c34.4-17.6,73.3-16.8,105.9,1.2
			c18.4,10.2,33.3,25.1,43.3,43.1c27.3,49.2,6,112.8-47.9,128.9c-11.5,3.5-23.4,4.4-35,3c-10.7-1.3-21.2-4.7-31-10.1
			c-16.5-9.2-29.3-23.2-36.7-40.2c-14.6-33.2-0.8-70.3,33.9-81.1c30.7-9.6,63.3,8.3,71.9,39.1c5.6,20.3-2.4,41.3-20.5,52.1
			c-9.7,5.8-20.2,7.7-30,6.5l-0.3,0c-4.2-0.5-5.8,5.3-1.9,6.9c14.1,6.1,30.4,7.2,46.2,1.6c35.4-12.5,50.6-53.7,35.7-88.1
			c-7.8-17.8-21.1-32.6-38.4-42.2c-28.9-16-64.1-15.1-93.7,4.2c-3.5,2.3-6.8,4.9-9.8,7.8c-25.5,24.5-34.4,58.6-25.3,90.4l0,0
			c10.5,36.8,38.2,65.7,76,77.9c13.7,4.4,28.2,6.1,42.4,4.8c42-3.6,77.1-28,94.9-65c11.9-24.9,12.6-67.1,2.6-92.8
			c-29.3-75.8-119-114.1-196.8-74.7c-17.3,8.8-32.7,21.2-44.8,36.3c-29.7,37.1-38.9,84.1-26.3,128.4c12.5,43.5,41.1,79.6,80.7,101.5
			c48.6,26.9,106.4,28.7,158,3.5c21.2-10.3,39.9-25.3,54.8-43.5c36.2-44.6,47.6-101.4,32.3-154.8C680,220,638,173.1,580.4,149.7
			c-32.5-13.1-68.2-17.2-102.7-11.7c-61.4,9.7-112.9,46-142.4,99.2c-25.4,45.9-31.5,98.9-17.2,149.3l0,0
			c20.2,61.1,60.3,101.7,110.1,128c267.2,140.8,472.2-236.1,217.2-398.1c-105.6-67.1-230.8-39.1-306.7,29.4
			c-98.3,88.8-255.4,43.8-287-84.8c-0.3-1-0.5-2.1-0.7-3.1c-1-4.2,1.7-8.4,5.8-9.4C349.4-25.5,532.1,22.2,657.1,94.7z"/>
	</g>
</g>
<g>
	<path class="st1" d="M393.8,782.9c0-53.2,40.5-90.4,90.6-90.4c31.2,0,55.1,11.7,70.1,34.3l-14.3,10.4
		c-11.4-16.9-30.4-27.8-55.8-27.8c-41.3,0-71.2,31.4-71.2,73.5c0,42.1,29.9,73.5,71.2,73.5c25.7,0,45.5-11.2,58.2-29.6l14.5,10.1
		c-15.6,22.9-41,36.4-72.7,36.4C434.3,873.3,393.8,836.1,393.8,782.9z"/>
	<path class="st1" d="M579.5,817.4c0-31.4,24.9-56.1,57.1-56.1c31.9,0,56.6,24.7,56.6,56.1c0,31.4-24.7,55.8-56.6,55.8
		C604.4,873.3,579.5,848.8,579.5,817.4z M674.8,817.4c0-23.1-15.3-40.3-38.2-40.3c-23.1,0-38.7,17.1-38.7,40.3
		c0,23.1,15.6,40.3,38.7,40.3C659.5,857.7,674.8,840.5,674.8,817.4z"/>
	<path class="st1" d="M725.7,683.7h16.7v211.9h-16.7V683.7z"/>
	<path class="st1" d="M777.4,817.4c0-31.4,24.9-56.1,57.1-56.1c31.9,0,56.6,24.7,56.6,56.1c0,31.4-24.7,55.8-56.6,55.8
		C802.3,873.3,777.4,848.8,777.4,817.4z M872.7,817.4c0-23.1-15.3-40.3-38.2-40.3c-23.1,0-38.7,17.1-38.7,40.3
		c0,23.1,15.6,40.3,38.7,40.3C857.4,857.7,872.7,840.5,872.7,817.4z"/>
	<path class="st1" d="M922.8,763.7H941l-0.5,21c6.8-16.4,18.7-23.1,31.4-23.1c8.1,0,13.8,1.8,18.7,5.2l-7,15.8
		c-3.4-2.3-8.1-4.2-14.8-4.2c-15.3,0-27.8,10.9-27.8,36.1v113.2h-18.2V763.7z"/>
	<path class="st1" d="M318.5,941.8l15.6-8.3c8.3,14.8,20.5,27.5,45.5,27.5c20.5,0,36.6-11.4,36.6-30.1c0-17.9-11.2-27-33.2-36.9
		l-14-6.5c-25.2-11.4-39-23.6-39-48.3c0-25.5,20-42.3,46.5-42.3c23.6,0,38.4,10.9,47.8,26.5l-15.1,9.4
		c-6.8-10.9-16.1-19.2-32.7-19.2c-17.4,0-28.1,10.1-28.1,25.2c0,15.6,8.3,22.6,28.1,31.7l14,6.5c29.4,13,44.4,27.5,44.4,54
		c0,29.1-23.1,46.8-54.8,46.8C346.3,977.7,327.8,960.5,318.5,941.8z"/>
	<path class="st1" d="M519.5,962.3c16.1,0,27-6.5,34-14.3l11.2,10.9c-9.9,11.2-24.2,18.7-45.2,18.7c-35.3,0-58.2-24.4-58.2-55.8
		c0-31.4,24.2-56.1,55.6-56.1c34.5,0,55.3,26.5,54,62.1h-91.4C481.9,948.3,495.9,962.3,519.5,962.3z M552.8,914
		c-1.6-18.4-13.2-33-35.8-33c-20.5,0-34.3,13.2-37.1,33H552.8z"/>
	<path class="st1" d="M602.1,853.4c0,0,13.3,12.3,56.4,12.3c23.9,0,40.3,16.4,40.3,44.4v65.5h-18.2v-63.4c0-19-8.8-29.9-26.8-29.9
		c-20,0-33.5,12.7-33.5,34v59.2h-18.2V853.4z"/>
	<path class="st1" d="M718.2,952.7l14-8.1c6.2,10.4,15.6,18.2,31.2,18.2c14.5,0,22.9-6.2,22.9-16.1c0-11.7-9.4-14.3-28.1-19.7
		c-16.9-4.9-32.5-11.7-32.5-31.9c0-18.7,15.6-29.4,35.3-29.4c16.4,0,28.3,6.8,35.8,17.4l-12.5,9.6c-5.5-7.5-13-12.2-23.4-12.2
		c-11.7,0-18.7,5.5-18.7,13.8c0,10.1,6.5,13,25.5,18.4c18.2,4.9,35.6,12.2,35.6,33c0,18.2-12.2,31.9-39.2,31.9
		C740.5,977.7,725.2,966.2,718.2,952.7z"/>
	<path class="st1" d="M890,962.3c16.1,0,27-6.5,34-14.3l11.2,10.9c-9.9,11.2-24.2,18.7-45.2,18.7c-35.3,0-58.2-24.4-58.2-55.8
		c0-31.4,24.2-56.1,55.6-56.1c34.5,0,55.3,26.5,54,62.1H850C852.3,948.3,866.4,962.3,890,962.3z M923.2,914
		c-1.6-18.4-13.2-33-35.8-33c-20.5,0-34.3,13.2-37.1,33H923.2z"/>
</g>
<g>
	<g>
		<path class="st1" d="M617.1,76.6c227.8,88.3,353.7,388.9,367.1,439c1.2,4.4-1.6,8.7-6.1,9.9c-124.5,33-305.6,55.2-421.2,50.3
			c-123.9-5.3-205.8-54.7-249.8-148.7l0.1-0.4c-0.1-0.2,0-0.8-0.1-0.9l0.5,0.2l-0.1,0.4c-24.7-55.9-27.3-119.9-2.8-177.6
			c19.6-46.2,54.8-84.5,99.3-107.8c55.6-29.2,119.1-33.3,177.5-11.8c55,20.2,98.8,60.5,123.4,113.6c23.9,51.6,23.9,110.1-0.5,162.4
			c-15.7,33.7-41.3,62.3-73,81.6C602,504.5,569.7,514,537.1,515c-24.3,0.8-48.7-3.1-72.2-11.7c-48.1-17.6-86.5-53-108-99.5
			c-12.1-26.1-17.9-71-12.3-99.2c11.9-59.9,53.5-106.7,111.2-125.5c27.4-8.9,56.9-10.3,85-3.9c50.9,11.5,91.8,44.8,113.2,91.1
			c17.9,38.6,17,82.7-3.1,121.3c-11.5,22.2-29.3,40.8-50.8,53.5c-20.5,12.1-43,18.6-65.7,19.3c-17.3,0.6-34.7-2.2-51.5-8.4
			c-34.3-12.6-61.6-37.7-77-70.9l0,0c-15.6-33.8-13.7-72.6,6.4-105.6c7.2-11.9,16.8-22.4,28.1-30.6c31.3-22.7,69.9-27.9,104.8-15.1
			c19.8,7.3,36.8,19.7,49.4,35.9c34.6,44.4,23.4,110.5-27.4,134.8c-10.9,5.2-22.4,8-34.1,8.4c-10.8,0.3-21.7-1.4-32.2-5.2
			c-17.7-6.5-32.5-18.4-42.5-34.1c-19.5-30.6-11.6-69.4,21-85.4c28.9-14.2,63.8-1.6,77.1,27.6c8.7,19.1,4,41.2-12.2,54.6
			c-8.7,7.2-18.7,10.7-28.6,11l-0.3,0c-4.2,0.1-4.9,6.1-0.8,7.1c14.8,3.9,31.1,2.4,45.9-5.5c33.1-17.8,41.7-60.9,21.6-92.6
			c-10.4-16.4-25.9-28.9-44.5-35.7c-31-11.4-65.7-5-91.9,18.6c-3.1,2.8-6,5.9-8.5,9.2c-21.4,28.1-24.9,63.2-11,93.2l0,0
			c16.1,34.7,47.9,59,87.1,65.2c14.2,2.2,28.8,1.6,42.7-1.8c41-10,71.9-39.6,83.7-78.9c7.9-26.4,2.1-68.2-11.7-92.1
			C587.3,194,492.8,170,422,220.9c-15.8,11.3-29,26-38.7,42.8c-23.6,41.2-25.5,89.1-6.1,130.9c19,41.1,52.9,72.3,95.4,87.8
			c52.1,19.1,109.6,11.9,156.7-21c19.3-13.5,35.6-31.1,47.4-51.5c28.9-49.7,31.4-107.5,8-157.9c-25.6-55.2-74.3-95.1-134.9-109.3
			c-34.1-8-70-6.5-103.3,4.3c-59.2,19.1-104.4,62.9-125.4,120c-18.1,49.2-15.9,102.6,6,150.2l0,0c29.4,57.2,75.3,91.2,128.6,109.4
			c285.8,97.9,430.1-306.2,153.1-426.8c-114.7-50-234.1-3-298.4,76.4C227,279.2,64.8,259,13.7,136.8c-0.4-1-0.8-2-1.2-3
			c-1.6-4,0.4-8.6,4.3-10.2C294.5,5.4,482.4,24.3,617.1,76.6z"/>
	</g>
</g>
</svg>
